<?xml version="1.0" standalone="no"?><!DOCTYPE svg PUBLIC "-//W3C//DTD SVG 1.1//EN" "http://www.w3.org/Graphics/SVG/1.1/DTD/svg11.dtd"><svg t="1686724692437" class="icon" viewBox="0 0 1024 1024" version="1.1" xmlns="http://www.w3.org/2000/svg" p-id="19254" xmlns:xlink="http://www.w3.org/1999/xlink" width="200" height="200"><path d="M99.6 293.4h594.8c13 23.5 38.1 39.5 66.9 39.5s53.9-16 66.9-39.5H924c19.5 0 35.4-15.8 35.4-35.4s-15.8-35.4-35.4-35.4h-94.4c-12.5-25.1-38.4-42.5-68.3-42.5s-55.8 17.3-68.3 42.5H99.6c-19.5 0-35.4 15.8-35.4 35.4s15.9 35.4 35.4 35.4zM924 503.9H356.3c-12.1-26.1-38.5-44.2-69.2-44.2s-57.1 18.1-69.2 44.2H99.6c-19.5 0-35.4 15.8-35.4 35.4 0 19.5 15.8 35.4 35.4 35.4h121.8c13.3 22.6 37.7 37.7 65.8 37.7s52.5-15.2 65.8-37.7h571c19.5 0 35.4-15.8 35.4-35.4-0.1-19.6-15.9-35.4-35.4-35.4zM924 785.2H351.5c-13.6-21.2-37.3-35.4-64.4-35.4s-50.8 14.1-64.4 35.4H99.6c-19.5 0-35.4 15.8-35.4 35.4S80 856 99.6 856h117.2c11.6 27.4 38.7 46.6 70.3 46.6s58.7-19.2 70.3-46.6H924c19.5 0 35.4-15.8 35.4-35.4s-15.9-35.4-35.4-35.4z" fill="#515151" p-id="19255"></path></svg>