<?xml version="1.0" standalone="no"?><!DOCTYPE svg PUBLIC "-//W3C//DTD SVG 1.1//EN" "http://www.w3.org/Graphics/SVG/1.1/DTD/svg11.dtd"><svg t="1686725247526" class="icon" viewBox="0 0 1024 1024" version="1.1" xmlns="http://www.w3.org/2000/svg" p-id="1811" xmlns:xlink="http://www.w3.org/1999/xlink" width="200" height="200"><path d="M762.69568 936.96a34.9696 34.9696 0 0 1-3.93216-0.22016c-12.51328-1.42336-308.30592-37.01248-473.088-231.32672-146.77504-173.09696-178.4832-335.19616-192.0256-404.41344-2.07872-10.63424-3.87584-19.81952-5.36576-25.28256a34.89792 34.89792 0 0 1 9.35424-34.2016l143.64672-139.50464A35.21024 35.21024 0 0 1 266.24 92.16a34.86208 34.86208 0 0 1 24.576 10.8032l173.21472 181.76a34.90304 34.90304 0 0 1-0.47616 48.64c-2.60096 2.62144-58.80832 59.28448-107.008 103.97696 23.33184 100.352 164.53632 211.77344 232.40704 235.65824 49.1776-53.6832 104.6016-110.37184 105.216-110.99136a34.85696 34.85696 0 0 1 24.576-10.48064 35.8656 35.8656 0 0 1 24.77568 10.02496l183.08096 180.37248a34.88768 34.88768 0 0 1-0.18944 49.8944l-139.4688 135.30112a34.85184 34.85184 0 0 1-24.24832 9.84064zM160.1792 278.016q0.90112 4.52608 1.8944 9.60512C175.616 356.864 203.8272 501.05344 338.85184 660.28032c126.73024 149.45792 350.55616 194.90816 411.8784 204.83072l101.51936-98.49856-132.608-130.6624c-23.89504 24.82688-61.27616 64.09216-92.99968 99.26144a34.816 34.816 0 0 1-30.56128 11.19232C504.9856 734.04416 299.008 575.37024 284.3904 427.81696a34.90304 34.90304 0 0 1 11.29984-29.30688c31.07328-28.16 69.82656-66.048 94.336-90.30656l-125.44-131.62496z" fill="#707070" p-id="1812"></path><path d="M877.24032 431.80032c-1.024-70.23616-25.23136-135.62368-72.02816-194.36544A280.064 280.064 0 0 0 591.36 142.06464l-4.49024-59.8016c6.24128-0.47104 153.37472-10.06592 263.64416 116.11136 0.29184 0.3328 0.56832 0.6656 0.8448 1.024C906.97216 268.91776 935.76192 346.8288 936.96 430.94528z m-158.72 3.39968l-0.83968-6.6048c-4.74624-37.64224-7.12192-56.54016-35.328-89.96864-34.90816-41.41056-98.01728-37.15584-98.65216-37.10976l-5.12-59.7504c3.81952-0.3328 94.17728-7.3728 149.38624 58.10688 39.62368 47.0016 43.95008 81.3824 48.96768 121.18528l0.82432 6.4768z" fill="#707070" p-id="1813"></path></svg>