<?xml version="1.0" standalone="no"?><!DOCTYPE svg PUBLIC "-//W3C//DTD SVG 1.1//EN" "http://www.w3.org/Graphics/SVG/1.1/DTD/svg11.dtd"><svg t="1686538839471" class="icon" viewBox="0 0 1025 1024" version="1.1" xmlns="http://www.w3.org/2000/svg" p-id="1807" xmlns:xlink="http://www.w3.org/1999/xlink" width="200.1953125" height="200"><path d="M191.106539 723.04482h66.21014c18.057311 0 33.10507 15.047759 33.10507 33.10507 0 18.057311-15.047759 33.10507-33.10507 33.10507h-66.21014c-18.057311 0-33.10507-15.047759-33.105069-33.10507 0-18.809699 15.047759-33.10507 33.105069-33.10507z m160.258634 0h66.210139c18.057311 0 33.10507 15.047759 33.10507 33.10507 0 18.057311-15.047759 33.10507-33.10507 33.10507h-66.210139c-18.057311 0-33.10507-15.047759-33.10507-33.10507 0-18.809699 15.047759-33.10507 33.10507-33.10507z m-158.00147-142.201323h66.21014c18.057311 0 33.10507 15.047759 33.10507 33.10507 0 18.057311-15.047759 33.10507-33.10507 33.10507h-66.21014c-18.057311 0-33.10507-15.047759-33.10507-33.10507 0-18.809699 15.047759-33.10507 33.10507-33.10507z m160.258634 0h66.210139c18.057311 0 33.10507 15.047759 33.10507 33.10507 0 18.057311-15.047759 33.10507-33.10507 33.10507H353.622337c-18.057311 0-33.10507-15.047759-33.10507-33.10507 0-18.809699 15.047759-33.10507 33.10507-33.10507zM193.363703 438.642175h66.21014c18.057311 0 33.10507 15.047759 33.10507 33.10507 0 18.057311-15.047759 33.10507-33.10507 33.105069h-66.21014c-18.057311 0-33.10507-15.047759-33.10507-33.105069 0-18.809699 15.047759-33.10507 33.10507-33.10507z m160.258634 0h66.210139c18.057311 0 33.10507 15.047759 33.10507 33.10507 0 18.057311-15.047759 33.10507-33.10507 33.105069H353.622337c-18.057311 0-33.10507-15.047759-33.10507-33.105069 0-18.809699 15.047759-33.10507 33.10507-33.10507zM193.363703 285.155033h66.21014c18.057311 0 33.10507 15.047759 33.10507 33.10507 0 18.057311-15.047759 33.10507-33.10507 33.10507h-66.21014c-18.057311 0-33.10507-15.047759-33.10507-33.10507 0-18.809699 15.047759-33.10507 33.10507-33.10507z m160.258634 0h66.210139c18.057311 0 33.10507 15.047759 33.10507 33.10507 0 18.057311-15.047759 33.10507-33.10507 33.10507H353.622337c-18.057311 0-33.10507-15.047759-33.10507-33.10507 0-18.809699 15.047759-33.10507 33.10507-33.10507z m293.4313 437.889787h180.573108c18.057311 0 33.10507 15.047759 33.10507 33.10507 0 18.057311-15.047759 33.10507-33.10507 33.10507H647.053637c-18.057311 0-33.10507-15.047759-33.10507-33.10507 0-18.809699 14.295371-33.10507 33.10507-33.10507z m0-142.201323h180.573108c18.057311 0 33.10507 15.047759 33.10507 33.10507 0 18.057311-15.047759 33.10507-33.10507 33.10507H647.053637c-18.057311 0-33.10507-15.047759-33.10507-33.10507 0-18.809699 14.295371-33.10507 33.10507-33.10507z m0-142.201322h180.573108c18.057311 0 33.10507 15.047759 33.10507 33.10507 0 18.057311-15.047759 33.10507-33.10507 33.105069H647.053637c-18.057311 0-33.10507-15.047759-33.10507-33.105069 0-18.809699 14.295371-33.10507 33.10507-33.10507z m-33.10507 0" fill="" p-id="1808"></path><path d="M984.123439 894.589273V318.260103c0-36.114622-29.34313-66.21014-66.21014-66.21014H553.005143V136.934607c0-36.114622-29.34313-66.21014-66.210139-66.21014H124.8964c-36.114622 0-66.21014 29.34313-66.21014 66.21014v757.654666H37.619398c-18.057311 0-33.10507 15.047759-33.10507 33.105069 0 18.057311 15.047759 33.10507 33.10507 33.10507h954.780308c18.057311 0 33.10507-15.047759 33.10507-33.10507 0-18.057311-15.047759-33.10507-33.10507-33.105069h-8.276267z m-859.227039 0V136.934607h362.650992v757.654666H124.8964z m431.118295 0V318.260103h362.650992v576.32917H556.014695z m0 0" fill="" p-id="1809"></path></svg>