<?xml version="1.0" standalone="no"?><!DOCTYPE svg PUBLIC "-//W3C//DTD SVG 1.1//EN" "http://www.w3.org/Graphics/SVG/1.1/DTD/svg11.dtd"><svg t="1686552096063" class="icon" viewBox="0 0 1024 1024" version="1.1" xmlns="http://www.w3.org/2000/svg" p-id="2507" xmlns:xlink="http://www.w3.org/1999/xlink" width="200" height="200"><path d="M955.934118 656.986353a30.117647 30.117647 0 0 1 30.117647 30.117647 271.058824 271.058824 0 0 1-396.649412 240.278588l6.927059 29.515294a30.117647 30.117647 0 0 1-56.922353 18.913883l-1.686588-5.180236-24.094118-102.4-0.783059-5.360941v-0.783059a30.117647 30.117647 0 0 1 50.898824-28.129882 210.823529 210.823529 0 0 0 362.134588-146.793412 30.117647 30.117647 0 0 1 30.117647-30.117647zM752.941176 0a210.823529 210.823529 0 0 1 210.522353 199.258353L963.764706 210.823529v132.517647a30.117647 30.117647 0 0 1-59.753412 5.421177L903.529412 343.341176V210.823529a150.588235 150.588235 0 0 0-140.709647-150.287058L752.941176 60.235294h-542.117647a150.588235 150.588235 0 0 0-150.287058 140.709647L60.235294 210.823529v542.117647a150.588235 150.588235 0 0 0 140.709647 150.287059L210.823529 903.529412h186.24753a30.117647 30.117647 0 0 1 5.421176 59.753412l-5.421176 0.481882H210.823529a210.823529 210.823529 0 0 1-210.522353-199.258353L0 752.941176v-542.117647A210.823529 210.823529 0 0 1 199.258353 0.301176L210.823529 0h542.117647z m145.468236 434.115765l1.746823 5.180235 24.094118 102.4 0.783059 5.360941v0.783059a30.117647 30.117647 0 0 1-50.898824 28.190118A210.823529 210.823529 0 0 0 512 722.823529a30.117647 30.117647 0 1 1-60.235294 0 271.058824 271.058824 0 0 1 396.649412-240.278588l-6.927059-29.515294a30.117647 30.117647 0 0 1 56.922353-18.913882zM361.411765 421.647059a30.117647 30.117647 0 0 1 5.421176 59.753412L361.411765 481.882353H180.705882a30.117647 30.117647 0 0 1-5.421176-59.753412L180.705882 421.647059h180.705883z m301.17647-180.705883a30.117647 30.117647 0 0 1 5.421177 59.753412L662.588235 301.176471H180.705882a30.117647 30.117647 0 0 1-5.421176-59.753412L180.705882 240.941176h481.882353z" fill="#33353B" p-id="2508"></path></svg>