<?xml version="1.0" standalone="no"?><!DOCTYPE svg PUBLIC "-//W3C//DTD SVG 1.1//EN" "http://www.w3.org/Graphics/SVG/1.1/DTD/svg11.dtd"><svg t="1686552111959" class="icon" viewBox="0 0 1024 1024" version="1.1" xmlns="http://www.w3.org/2000/svg" p-id="2646" xmlns:xlink="http://www.w3.org/1999/xlink" width="200" height="200"><path d="M320.85 338.81c-40.49 0-73.43-32.94-73.43-73.43s32.94-73.43 73.43-73.43 73.43 32.94 73.43 73.43-32.94 73.43-73.43 73.43z m0-106.87c-18.44 0-33.43 15-33.43 33.43s15 33.43 33.43 33.43 33.43-15 33.43-33.43-14.99-33.43-33.43-33.43z" p-id="2647"></path><path d="M428 448H212.02c-5.33 0-10.44-2.13-14.2-5.91a20.014 20.014 0 0 1-5.8-14.24c0.26-34.18 13.67-66.27 37.75-90.38 24.14-24.16 56.19-37.46 90.24-37.46s66.09 13.31 90.23 37.46c24.09 24.1 37.5 56.2 37.75 90.38A19.993 19.993 0 0 1 428 448z m-193.53-40h171.07c-9.35-38.93-44.25-67.99-85.54-67.99s-76.18 29.06-85.53 67.99zM800 288H672c-17.6 0-32-14.4-32-32s14.4-32 32-32h128c17.6 0 32 14.4 32 32s-14.4 32-32 32zM800 448H544c-17.6 0-32-14.4-32-32s14.4-32 32-32h256c17.6 0 32 14.4 32 32s-14.4 32-32 32zM800 608H224c-17.6 0-32-14.4-32-32s14.4-32 32-32h576c17.6 0 32 14.4 32 32s-14.4 32-32 32zM800 768H224c-17.6 0-32-14.4-32-32s14.4-32 32-32h576c17.6 0 32 14.4 32 32s-14.4 32-32 32z" p-id="2648"></path><path d="M898 960H126c-34.19 0-62-27.81-62-62V126c0-34.19 27.81-62 62-62h772c34.19 0 62 27.81 62 62v772c0 34.19-27.81 62-62 62z m-770-64h768V128H128v768z" p-id="2649"></path></svg>