<?xml version="1.0" standalone="no"?><!DOCTYPE svg PUBLIC "-//W3C//DTD SVG 1.1//EN" "http://www.w3.org/Graphics/SVG/1.1/DTD/svg11.dtd"><svg t="1686619530088" class="icon" viewBox="0 0 1024 1024" version="1.1" xmlns="http://www.w3.org/2000/svg" p-id="2927" xmlns:xlink="http://www.w3.org/1999/xlink" width="200" height="200"><path d="M553.408706 1.663771C500.667158 37.690818 447.132119 93.759908 413.511142 180.749547c-6.194348 15.9978-8.51083 33.147442-8.062891 50.233093 0.307158 11.569609-0.204772 26.082814-3.19956 39.623352-7.691742-5.682419-17.635975-14.244441-32.046794-26.543551a471.320793 471.320793 0 0 1-16.138581-17.968729 78.082064 78.082064 0 0 1-9.726662-23.395183c1.305421 6.706278 3.967454 13.732512 7.448576 20.681956-11.032083-13.271775-20.195623-26.40277-23.343991-36.372599 0 0 5.618427 20.733149 19.837273 43.270851 11.364837 17.968729 28.181725 37.114897 51.986452 47.827023-3.596306 11.697592-9.470698 22.000175-18.851808 28.066541C347.920161 327.839722 236.306708 371.148967 225.146642 403.656497c-4.530577 13.194986 40.352851 42.707728 44.653061 75.803977 2.393271 18.429466-21.501044 35.579108-33.492995 43.322043-33.480196 21.667421 11.172864 43.322043 11.172864 43.322044s-22.332929 10.827311-22.33293 21.66742c0 32.481934 22.332929 21.654622 22.33293 43.322044 0 21.654622 0 32.469135-22.33293 54.136556-17.648773 17.124045-22.320131 129.978928 167.426579 129.978928 104.011298 0 147.653298 94.387022 140.102336 208.227368-6.885453 0.281561-13.796503 0.422342-20.745947 0.422342C229.203684 1023.859219 0 794.655535 0 511.92961S229.203684 0 511.92961 0c13.96288 0 27.797778 0.563123 41.479096 1.663771z m305.366012 133.741611C960.29036 228.960518 1023.859219 363.034883 1023.859219 511.92961c0 165.865194-78.875555 313.300921-201.175538 406.856057-26.082814-43.872368-74.03782-89.664471-151.096024-136.07089 0 0-156.253715-151.620752-44.640262-259.93226 111.600655-108.298709 279.027234-140.780643 234.386972-379.058279 0 0-0.87028-3.007586-2.559649-8.318856z" fill="#707070" p-id="2928"></path></svg>