<?xml version="1.0" standalone="no"?><!DOCTYPE svg PUBLIC "-//W3C//DTD SVG 1.1//EN" "http://www.w3.org/Graphics/SVG/1.1/DTD/svg11.dtd"><svg t="1686724496323" class="icon" viewBox="0 0 1024 1024" version="1.1" xmlns="http://www.w3.org/2000/svg" p-id="14081" xmlns:xlink="http://www.w3.org/1999/xlink" width="200" height="200"><path d="M818 113c52.49 0 95.14 42.125 95.987 94.412L914 209v282.661c0 17.673-14.327 32-32 32-17.496 0-31.713-14.042-31.996-31.47l-0.004-0.53V177H176v676h233.09c17.672 0 32 14.327 32 32 0 17.496-14.043 31.713-31.472 32H208c-52.49 0-95.14-42.125-95.987-94.412L112 821V209c0-52.49 42.125-95.14 94.412-95.987L208 113h610zM611.86 420.2c106.238 0 192.66 86.424 192.66 192.663a191.532 191.532 0 0 1-33.12 107.59l-0.674 0.984 94.783 94.783c6.413 6.408 10.132 15.009 10.417 24.127l0.012 0.526v0.496c0 9.431-3.753 18.48-10.41 25.125a35.46 35.46 0 0 1-25.159 10.467 35.46 35.46 0 0 1-25.147-10.45l-94.785-94.785-0.959 0.657a191.537 191.537 0 0 1-105.22 33.122l-1.187 0.012-1.21 0.004c-106.237 0-192.66-86.423-192.66-192.66S505.623 420.2 611.86 420.2z m0 64.126c-70.864 0-128.534 57.67-128.534 128.535 0 70.864 57.67 128.534 128.535 128.534 70.864 0 128.534-57.67 128.534-128.534 0-70.865-57.67-128.535-128.534-128.535zM363 420c17.673 0 32 14.327 32 32 0 17.673-14.327 32-32 32h-76c-17.673 0-32-14.327-32-32 0-17.673 14.327-32 32-32h76z m376-163c17.673 0 32 14.327 32 32 0 17.673-14.327 32-32 32H287c-17.673 0-32-14.327-32-32 0-17.673 14.327-32 32-32h452z" fill="#707070" p-id="14082"></path></svg>